<svg xmlns="http://www.w3.org/2000/svg" width="213" height="79" viewBox="0 0 213 79"><defs><mask id="9j1tb" width="2" height="2" x="-1" y="-1"><path fill="#fff" d="M9 5h195v64H9z"/><path d="M197.266 5.81H16.037a6.764 6.764 0 0 0-6.764 6.763v32.402a6.764 6.764 0 0 0 6.764 6.764h115.265l24.37 16.56V51.74h41.594a6.764 6.764 0 0 0 6.763-6.764V12.573a6.764 6.764 0 0 0-6.763-6.763z"/></mask><filter id="9j1ta" width="235" height="107" x="-11" y="-15" filterUnits="userSpaceOnUse"><feOffset dy="3" in="SourceGraphic" result="FeOffset1037Out"/><feGaussianBlur in="FeOffset1037Out" result="FeGaussianBlur1038Out" stdDeviation="4 4"/></filter></defs><g><g opacity=".82"><g filter="url(#9j1ta)"><path fill="none" d="M197.266 5.81H16.037a6.764 6.764 0 0 0-6.764 6.763v32.402a6.764 6.764 0 0 0 6.764 6.764h115.265l24.37 16.56V51.74h41.594a6.764 6.764 0 0 0 6.763-6.764V12.573a6.764 6.764 0 0 0-6.763-6.763z" mask="url(&quot;#9j1tb&quot;)"/><path fill-opacity=".5" d="M197.266 5.81H16.037a6.764 6.764 0 0 0-6.764 6.763v32.402a6.764 6.764 0 0 0 6.764 6.764h115.265l24.37 16.56V51.74h41.594a6.764 6.764 0 0 0 6.763-6.764V12.573a6.764 6.764 0 0 0-6.763-6.763z"/></g><path fill="#f47821" d="M197.266 5.81H16.037a6.764 6.764 0 0 0-6.764 6.763v32.402a6.764 6.764 0 0 0 6.764 6.764h115.265l24.37 16.56V51.74h41.594a6.764 6.764 0 0 0 6.763-6.764V12.573a6.764 6.764 0 0 0-6.763-6.763z"/></g></g></svg>