<svg xmlns="http://www.w3.org/2000/svg" width="319" height="54" viewBox="0 0 319 54"><g><g opacity=".65"><g opacity=".65"><g opacity=".65"><path fill="#fff" d="M8.674 38.927c-.226.906-.377 1.81-.377 2.716 0 2.036.905 3.847 3.998 3.847 5.28 0 6.788-5.507 6.788-10.636 0-2.564-1.282-3.695-4.752-5.28-7.165-3.318-9.05-6.712-9.05-11.087C5.28 7.173 10.86-.068 20.817-.068c8.146 0 11.238 4.45 11.238 9.806 0 1.357-.15 2.866-.603 4.299l-8.146.679c.226-.981.377-1.961.377-2.866 0-2.112-.98-3.998-4.073-3.998-4.903 0-6.034 5.883-6.034 8.75 0 2.111 1.207 3.62 5.808 5.656 6.26 2.716 8.07 5.582 8.07 10.107 0 11.993-4.224 20.969-15.99 20.969C3.545 53.334 0 49.11 0 43.378c0-1.207.151-2.414.453-3.62z"/></g><g opacity=".65"><path fill="#fff" d="M51.819 8.079L43.144 52.88h-8.07l8.674-44.803h-8.524L36.733.385H61.85l-1.508 7.693z"/></g><g opacity=".65"><path fill="#fff" d="M75.427 8.079c3.771 0 5.657 1.885 5.657 5.43 0 6.638-3.545 10.032-8.07 10.032h-3.32l3.018-15.463zm13.652 3.846c0-8.146-4.3-11.54-11.767-11.54H66.074L55.892 52.88h8.146l4.148-21.722h3.847l2.64 21.722h8.296l-3.243-23.457c6.034-2.79 9.353-8.07 9.353-17.499z"/></g><g opacity=".65"><path fill="#fff" d="M107.785 7.852c2.79.15 3.922 1.81 3.922 4.3 0 .754-.075 1.583-.227 2.413l-5.053 26.022c-.604 3.017-2.263 4.827-5.054 4.827-2.79 0-4.072-1.66-4.072-3.998 0-.83.15-1.659.301-2.489l5.205-26.398c.603-2.791 2.112-4.677 4.978-4.677zm12.219 3.017c0-6.638-4.149-10.937-11.767-10.937-7.844 0-11.992 4.224-13.576 12.446L89.607 38.55c-.226 1.434-.377 2.791-.377 4.074 0 6.335 3.62 10.71 11.993 10.71 8.07 0 11.992-4.752 13.426-12.596l4.903-25.947c.301-1.433.452-2.64.452-3.922z"/></g><g opacity=".65"><path fill="#fff" d="M143.385 32.893L149.42.385h7.995L147.232 52.88h-7.165l-4.375-21.798-1.81-9.73h-.302l-6.034 31.528h-8.07L129.657.385h7.316l4.3 21.572c.226 1.584 1.659 9.277 1.81 11.012z"/></g><g opacity=".65"><path fill="#fff" d="M187.962 10.718c0 .905-.15 1.81-.301 2.791-2.716.377-5.13.754-7.845 1.207.076-.377.076-.755.076-1.132 0-3.47-1.358-5.958-4.149-5.958-4.375 0-5.204 3.545-5.958 7.392-3.47 17.498-4.224 22.25-4.979 26.323-.452 2.414.453 4.3 3.847 4.3 3.092 0 5.054-1.51 5.657-4.752l1.961-9.73h-4.827l1.357-7.09H185.7l-3.243 16.744c-1.81 9.353-7.316 12.52-14.33 12.52-6.412 0-11.466-3.167-11.466-9.277 0-4.6 2.565-15.613 5.657-31.301 1.735-7.92 5.959-12.823 14.482-12.823 7.77 0 11.163 4.45 11.163 10.786z"/></g><g opacity=".65"><path fill="#fff" d="M187.057 52.881L197.24.385h23.306l-1.508 7.694h-15.16l-2.792 14.255h13.2l-1.51 7.769h-13.199l-2.941 15.16h15.16l-1.433 7.618z"/></g><g opacity=".65"><path fill="#fff" d="M235.253 8.079c3.772 0 5.658 1.885 5.658 5.43 0 6.638-3.545 10.032-8.07 10.032h-3.32l3.018-15.463zm13.653 3.846c0-8.146-4.3-11.54-11.767-11.54h-11.238L215.718 52.88h8.146l4.149-21.722h3.847l2.64 21.722h8.296l-3.243-23.457c6.034-2.79 9.353-8.07 9.353-17.499z"/></g></g><g opacity=".65"><g opacity=".65"><path fill="#fff" d="M260.788 2.41l-4.701 24.424h-2.332l4.702-24.423h-4.816l.458-2.179h11.963l-.496 2.179z"/></g><g opacity=".65"><path fill="#fff" d="M272.711 26.834l2.447-12.575h-7.3l-2.447 12.575h-2.331L268.24.232h2.331l-2.37 11.963h7.339L277.872.232h2.37l-5.16 26.602z"/></g><g opacity=".65"><path fill="#fff" d="M288.992 3.94l-.037 6.536.152 7.72h-5.81l3.097-7.644 2.446-6.613zm2.523 22.894L290.827.232h-2.37l-10.893 26.602h2.332l2.6-6.421h6.65l.115 6.42z"/></g><g opacity=".65"><path fill="#fff" d="M299.999 6.424c-1.3 6.803-2.599 13.607-3.937 20.41h-2.293l5.16-26.602h2.178c.688 3.249 2.14 9.594 3.287 14.83.497 2.255.956 4.204 1.185 5.35.039 0 .115-.037.153-.037L309.63.232h2.294l-5.16 26.602h-2.178c-.956-4.472-3.479-16.09-4.472-20.41z"/></g></g><g opacity=".65"><g opacity=".65"><path fill="#fff" d="M265.159 32.582c0 .489-.035 1.047-.175 1.571l-2.234.314c.14-.523.209-.977.209-1.432 0-1.431-.768-2.688-2.968-2.688-3.318 0-4.156 3.666-4.156 5.517 0 1.362.769 2.27 3.458 3.492 2.758 1.222 3.596 2.55 3.596 4.574 0 5.517-2.095 9.149-6.949 9.149-3.422 0-4.923-1.851-4.923-4.4 0-.454.035-.908.14-1.397l2.2-.28c-.105.49-.175.944-.175 1.363 0 1.466.733 2.688 2.898 2.688 3.422 0 4.54-3.282 4.54-6.494 0-1.642-.839-2.375-2.864-3.352-3.282-1.571-4.12-3.038-4.12-4.959 0-4.888 2.514-7.926 6.704-7.926 3.492 0 4.819 2.025 4.819 4.26z"/></g><g opacity=".65"><path fill="#fff" d="M273.364 30.522l-4.295 22.312h-2.13l4.295-22.312h-4.4l.42-1.99h10.93l-.455 1.99z"/></g><g opacity=".65"><path fill="#fff" d="M275.46 52.834l4.713-24.303h10.162l-.42 1.99h-8.03l-1.712 8.905h7.019l-.384 1.99h-7.019l-1.85 9.463h8.03l-.349 1.955z"/></g><g opacity=".65"><path fill="#fff" d="M288.065 52.834l4.714-24.303h10.161l-.419 1.99h-8.031l-1.711 8.905h7.018l-.384 1.99h-7.018l-1.85 9.463h8.03l-.349 1.955z"/></g><g opacity=".65"><path fill="#fff" d="M300.67 52.834l4.714-24.303h2.13L303.15 50.88h7.543l-.35 1.955z"/></g></g><g opacity=".65"><g opacity=".65"><path fill="#fff" d="M315.332 47.25c.502 0 .646.288.646.772 0 .43-.144.735-.592.735h-.43V47.25h.376zm1.56 4.107l-.77-2.062c.483-.27.626-.735.626-1.273 0-.986-.448-1.452-1.308-1.452h-1.256v4.787h.772V49.42h.43l.663 1.937zm-1.435-5.774c1.74 0 2.654 1.47 2.654 3.3 0 1.828-.807 3.262-2.654 3.262-1.757 0-2.707-1.344-2.707-3.263 0-1.829.86-3.299 2.707-3.299zm0 7.262c2.188 0 3.407-1.685 3.407-3.927 0-2.276-1.22-3.962-3.407-3.962-2.258 0-3.442 1.686-3.442 3.962 0 2.242 1.184 3.927 3.442 3.927z"/></g></g></g></g></svg>